<svg xmlns="http://www.w3.org/2000/svg" viewBox="170 96 520 666" width="260" height="333" role="img" aria-label="Al Waheed Builders and Developers"><title>Al Waheed Builders and Developers</title><defs><linearGradient id="g1" x1="0" y1="0" x2="1" y2="1"><stop offset="0" stop-color="#b5933c"/><stop offset=".5" stop-color="#bc9b4c"/><stop offset="1" stop-color="#a47e15"/></linearGradient><linearGradient id="g2" x1="0" y1="0" x2="1" y2="1"><stop offset="0" stop-color="#bb9b4a"/><stop offset=".5" stop-color="#bea051"/><stop offset="1" stop-color="#ac8726"/></linearGradient><linearGradient id="g3" x1="0" y1="0" x2="1" y2="1"><stop offset="0" stop-color="#b89543"/><stop offset=".5" stop-color="#bb9a49"/><stop offset="1" stop-color="#b38e3a"/></linearGradient><linearGradient id="g4" x1="0" y1="0" x2="1" y2="1"><stop offset="0" stop-color="#b4913a"/><stop offset=".5" stop-color="#bb9a49"/><stop offset="1" stop-color="#a57d14"/></linearGradient><linearGradient id="g5" x1="0" y1="0" x2="1" y2="1"><stop offset="0" stop-color="#b7953f"/><stop offset=".5" stop-color="#bfa154"/><stop offset="1" stop-color="#a7811a"/></linearGradient><linearGradient id="g6" x1="0" y1="0" x2="1" y2="1"><stop offset="0" stop-color="#ba9a49"/><stop offset=".5" stop-color="#ba9a49"/><stop offset="1" stop-color="#ba9a49"/></linearGradient><path id="font_10_10" d="M.06399536 0H.5119934V.06199646H.1309967V.71484377H.06399536V0Z"/><path id="font_10_13" d="M.36799623-.013671875C.57099917-.013671875 .70199587 .14533997 .70199587 .35839845 .70199587 .57144168 .57099917 .73046877 .36799623 .73046877 .1659851 .73046877 .035995485 .57144168 .035995485 .35839845 .035995485 .14533997 .1659851-.013671875 .36799623-.013671875M.36799623 .046325685C.19699097 .046325685 .10598755 .18534851 .10598755 .35839845 .10598755 .5314331 .19699097 .67045596 .36799623 .67045596 .5399933 .67045596 .6319885 .5314331 .6319885 .35839845 .6319885 .18534851 .5399933 .046325685 .36799623 .046325685Z"/><path id="font_10_14" d="M.06399536 0H.1309967V.31115724H.33599855C.48599244 .31115724 .5629883 .38313294 .5629883 .5149994 .5629883 .57392886 .54499819 .6188812 .5130005 .65283206 .47499085 .6928406 .4229889 .71484377 .34498597 .71484377H.06399536V0M.1309967 .36816407V.655838H.33699037C.43998719 .655838 .49499513 .6048889 .49499513 .5130005 .49499513 .4230957 .44699098 .36816407 .33099366 .36816407H.1309967Z"/><path id="font_10_15" d="M.1309967 .37597657V.655838H.36898805C.47698976 .655838 .5169983 .6048584 .5169983 .51589968 .5169983 .42694093 .46398927 .37597657 .3600006 .37597657H.1309967M.06399536 0H.1309967V.31896974H.34899903C.45298768 .31896974 .49598695 .28396607 .5019989 .1599884 .5079956 .037994386 .5119934 .010986328 .5279999 0H.59999087V.0039978029C.58699038 .0129852299 .57398989 .041992189 .56900027 .15698242 .56399539 .26797486 .5399933 .3219757 .46598817 .3469696V.3499756C.5479889 .37597657 .58599856 .4339447 .58599856 .52189639 .58599856 .6408386 .5119934 .71484377 .3829956 .71484377H.06399536V0Z"/><path id="font_10_16" d="M.31199647-.0126953129C.46199037-.0126953129 .56399539 .06925964 .56399539 .19610596 .56399539 .34591676 .44898988 .3798828 .30999757 .4068451 .18199158 .43081666 .115997318 .4567871 .115997318 .54167178 .115997318 .62057498 .18199158 .6725006 .29100038 .6725006 .3929901 .6725006 .46499635 .62057498 .47698976 .5196991H.5419922C.5289917 .6425476 .44898988 .7285156 .2899933 .7285156 .14698792 .7285156 .050994874 .65353396 .050994874 .53967288 .050994874 .41482545 .14399719 .37487794 .27598573 .34890748 .42900086 .3179474 .49598695 .2939911 .49598695 .19311524 .49598695 .09623718 .41799928 .043304445 .31298829 .043304445 .1789856 .043304445 .09700012 .111206058 .08999634 .23205567H.022994996C.0309906 .0932312 .12399292-.0126953129 .31199647-.0126953129Z"/><path id="font_10_17" d="M.31599427-.0107421879C.47099305-.0107421879 .58099368 .06124878 .58099368 .22714234V.71484377H.5139923V.23313904C.5139923 .10121155 .43798829 .04725647 .31900025 .04725647 .19400025 .04725647 .12298584 .10121155 .12298584 .23313904V.71484377H.055999757V.22714234C.055999757 .06324768 .1599884-.0107421879 .31599427-.0107421879Z"/><path id="font_10_18" d="M.2639923 0H.33699037L.59599307 .71484377H.5279999L.34199525 .18995667C.32598878 .14598084 .30299378 .068984989 .30299378 .068984989H.30099488C.30099488 .068984989 .2789917 .14297486 .2630005 .18696594L.07798767 .71484377H.0079956059L.2639923 0Z"/><path id="font_10_3" d="M.06399536 0H.37399293C.44799806 0 .5059967 .022994996 .54299929 .06098938 .57699587 .095962528 .59498599 .14292908 .59498599 .20088196 .59498599 .29580689 .5379944 .35375978 .45599366 .37677003V.37976075C.5279999 .4047699 .5649872 .45378114 .5649872 .5348053 .5649872 .5888214 .54599 .63282778 .5130005 .6628418 .47698976 .6968384 .4249878 .71484377 .36099244 .71484377H.06399536V0M.1309967 .4007721V.655838H.3619995C.44499208 .655838 .49699403 .6108246 .49699403 .5298004 .49699403 .45178224 .44699098 .4007721 .3600006 .4007721H.1309967M.1309967 .06098938V.34277345H.36999513C.46398927 .34277345 .5269928 .290802 .5269928 .19987488 .5269928 .15791321 .5139923 .124938968 .4909973 .10195923 .46499635 .07698059 .4249878 .06098938 .36999513 .06098938H.1309967Z"/><path id="font_10_5" d="M.06399536 0H.31098939C.5219879 0 .6239929 .14297486 .6239929 .35491944 .6239929 .566864 .5289917 .71484377 .31799317 .71484377H.06399536V0M.1309967 .05899048V.655838H.31599427C.4869995 .655838 .55400088 .53585818 .55400088 .35491944 .55400088 .17396546 .47999574 .05899048 .30899049 .05899048H.1309967Z"/><path id="font_10_6" d="M.06399536 0H.5609894V.06199646H.1309967V.3408203H.5149994V.39881898H.1309967V.655838H.5499878V.71484377H.06399536V0Z"/><path id="font_10_9" d="M.066986087 0H.13398743V.71484377H.066986087V0Z"/><path id="font_11_1" d="M.60198977 0C.56199648 .04296875 .5269928 .08093262 .4909973 .11891174 .54100039 .1778717 .56999209 .2618103 .58799746 .36773683H.5079956C.49499513 .2828064 .47399903 .21784973 .44299317 .17086792 .3999939 .21884156 .33599855 .29278565 .2789917 .3587494V.3617401C.38598634 .41470338 .4269867 .4706726 .4269867 .541626 .4269867 .6285553 .3619995 .6845703 .27799989 .6845703 .1659851 .6845703 .10699463 .60058596 .10699463 .518631 .10699463 .4706726 .12799073 .42170716 .16299439 .37773133V.3747406C.085998538 .33291627 .0309906 .269989 .0309906 .17810059 .0309906 .07722473 .10699463-.0107421879 .23799134-.0107421879 .31199647-.0107421879 .3769989 .012252808 .43499757 .0662384 .46099855 .037963869 .47898866 .018981934 .49798585 0H.60198977M.25299073 .055252077C.17199707 .055252077 .114990238 .11418152 .114990238 .19108582 .114990238 .2619934 .1659851 .3049469 .20199585 .32792665 .2769928 .24201966 .35198976 .16012573 .3919983 .11618042 .3600006 .081222537 .31098939 .055252077 .25299073 .055252077M.27198792 .6245575C.32699586 .6245575 .34999085 .5786133 .34999085 .53767397 .34999085 .4807434 .30599977 .44477845 .23799134 .40582276 .20899964 .44178773 .18699646 .4787445 .18699646 .5266876 .18699646 .5786133 .21598816 .6245575 .27198792 .6245575Z"/><path id="font_9_2" d="M.033996583 .18865967H.30499269V.30566407H.033996583V.18865967Z"/><path id="font_9_3" d="M.29499818 .46875C.30699159 .5068054 .32499696 .57884219 .32499696 .57884219H.32699586C.32699586 .57884219 .34399415 .5068054 .35598756 .46878053L.41999818 .2626953H.23098755L.29499818 .46875M.0029907227 0H.1499939L.19699097 .15168762H.45498658L.5029907 0H.6539917L.4019928 .71484377H.2519989L.0029907227 0Z"/><path id="font_9_4" d="M.054992677 0H.32199098C.4119873 0 .48098756 .024993897 .5339966 .068984989 .60899356 .13198853 .647995 .23396302 .647995 .34991456 .647995 .5608368 .5249939 .71484377 .33399964 .71484377H.054992677V0M.19999695 .125V.5908356H.31599427C.43899537 .5908356 .5009918 .49186708 .5009918 .34991456 .5009918 .20796204 .44799806 .125 .31199647 .125H.19999695Z"/><path id="font_9_5" d="M.054992677 0H.58399966V.12098694H.19999695V.3136139H.5339966V.4326172H.19999695V.5928345H.58099368V.71484377H.054992677V0Z"/><path id="font_9_6" d="M.054992677 0H.19999695V.31455995H.48098756V0H.6259918V.71484377H.48098756V.4345703H.19999695V.71484377H.054992677V0Z"/><path id="font_9_7" d="M.21299744 0H.34700013L.43499757 .38290406C.44699098 .43489076 .45799256 .50987246 .45799256 .50987246H.45999146C.45999146 .50987246 .47299195 .43489076 .4850006 .38290406L.57199099 0H.70700076L.9109955 .71484377H.7679901L.6779938 .36091615C.6639862 .29891969 .6429901 .20394898 .6429901 .20394898H.6409912C.6409912 .20394898 .6230011 .29393006 .60798647 .35691834L.5299988 .71484377H.3899994L.31199647 .35591126C.29699708 .29292298 .2789917 .20394898 .2789917 .20394898H.2769928C.2769928 .20394898 .2599945 .29891969 .24598694 .35990907L.15299988 .71484377H.004989624L.21299744 0Z"/><path id="font_9_8" d="M.04598999 0H.18199158V.71484377H.04598999V0Z"/></defs><g><path transform="matrix(1,0,0,-1,669.6,350.9)" fill="none" stroke="#b69340" stroke-width="20" d="M0 0C0-132.5-107.4-239.9-239.9-239.9-372.4-239.9-479.8-132.5-479.8 0-479.8 132.5-372.4 239.9-239.9 239.9-107.4 239.9 0 132.5 0 0Z"/><path transform="matrix(1,0,0,-1,0,859.3)" fill="url(#g1)" d="M426.5 430.3C431.2 417.5 437.1 403.4 450.4 397.6 473.7 387.4 505.4 412 523.6 424.4 538.5 434.6 560.7 451.1 563.4 470.8 558.6 469.8 553.7 469.3 548.7 469.3 548 468.4 547.3 467.4 546.5 466.5 527.7 443.7 496.9 423.4 469 413.7 455.9 409.1 435.5 411.1 429.2 426.4 423.6 440.2 433.5 463.9 437.9 476.9 439.5 481.3 430.2 489.2 431.4 492.8 424.3 472 418.7 451.7 426.5 430.3"/><path transform="matrix(1,0,0,-1,0,859.3)" fill="url(#g2)" d="M360.6 561.6C359.4 560.3 359.5 545.3 360.8 544.4 374.5 534.7 387.1 524 398.1 511.8 390.5 502.5 383.8 492.7 378.4 483.1 377.6 481.6 376.8 480.1 376 478.7 362 490.3 356.9 515.3 356.8 531.9 356.7 541.4 355.9 541.8 355.9 531.9 356.1 510.4 355.4 483.6 370.7 467 360.3 440.8 358.4 411.5 365.9 384.2 371 365.5 385.2 350.9 404.1 345.4 422.7 340.1 451.5 341.5 469.5 348.7 489.8 356.8 502.6 375.4 513.5 393.2 521.4 406.2 525.2 417.6 523.9 432.7 522.2 451.4 513.1 469.6 493.1 470.9 483.1 471.5 473.9 471.3 464.1 474.1 458.6 475.7 452.8 476.7 447.5 479.2 445.8 480 443 481.2 441.9 482.6 441.1 483.6 440.6 484.1 440.3 484.5 441.5 485.9 442.6 487.3 443.5 488.8 444.9 490.8 444.1 494.5 443.4 498 443.4 500.7 443.4 503.3 443.4 505.9 443.3 505.8 443.2 505.7 443.1 505.6 443.2 505.7 443.3 505.8 443.4 505.9 442.7 505.2 442.2 504.3 441.6 503.5 436.6 497 429.5 492.4 423.2 487.2 416.3 481.3 410 474.9 400.7 473 394.1 471.6 388.4 472.2 383.5 474.2 389.7 484.1 397.2 493.9 405.6 503 409 498.8 412.2 494.4 415.3 489.8 412.8 493.5 417.9 502.7 415.1 507 414.3 508.1 413.6 509.2 412.8 510.3 436.1 532.8 465.4 549.1 496.8 547.8 497 547.8 497.9 564.8 496.7 564.9 471.5 568.6 446.2 571.4 420.8 572.9 413.3 573.3 405.3 574.1 397.5 574.1 383.9 574.1 370.6 571.8 360.6 561.6M372.6 552.6C387.2 559 405.1 556.7 421 555.7 430.1 555.2 439.3 554.5 448.4 553.6 432.5 545.5 417.9 533.6 405.5 520.2 395.8 532.3 384.7 542.9 372.6 552.6M415.8 463.3C422.3 468.4 430.2 474 436.5 480.3 436.7 478.5 436.9 476.6 437.3 474.8 440.1 460.3 461 456.4 473.6 454.6 488.7 452.3 504.5 457.6 514.5 443 517.7 438.4 520.6 432.2 521.9 426.5 521.7 426.2 521.5 425.8 521.2 425.4 520 423.6 519.2 420.7 518.2 418.7 514.2 410.9 509.3 403.1 504.3 395.8 493.6 380.4 477.7 366.6 458.8 363.1 440.3 359.7 416.4 357 398.6 364.6 379.8 372.6 369.1 386.5 364.7 406.1 360.6 423.9 366.8 443.9 376.3 461.9 376.9 461.5 377.4 461.1 378 460.8 383.3 457.1 389.1 455.5 394.7 455.5 402.1 455.5 409.4 458.2 415.8 463.3M522.4 427.3C522.7 428.5 523.3 428.9 522.4 427.3"/><path transform="matrix(1,0,0,-1,0,859.3)" fill="url(#g3)" d="M320.2 617.1C331.6 592.8 342.8 567.9 351.1 542.3 353.6 534.7 356.1 528.4 354.2 520.7 352.5 513.5 347.5 506 342.9 500.1 336.1 491.4 327.5 484.2 318.5 477.6 299.6 463.7 276.1 445.3 251.4 445.9 241.8 446.1 232.3 449.2 226.7 457.5 222.6 463.4 222.1 468.4 224 474.8 225.7 480.4 229.4 485.8 231.9 491.1 234.2 496.1 231 503.6 233.2 508.3 224.5 489.8 214.1 466.1 222.9 445.3 239.9 404.9 296.7 445.4 317.2 460.5 342.1 478.7 355.6 500 357 530.6 357.6 546.2 352.4 560 346.9 574.4 339.2 594.7 330.7 614.6 321.5 634.3 323.5 630 318 621.9 320.2 617.1"/><path transform="matrix(1,0,0,-1,0,859.3)" fill="url(#g4)" d="M540.6 634.9C569.8 592.1 584.2 544.5 583.8 492.6 583.5 445.4 571.3 399.2 549.3 357.5 548.2 355.4 552.3 347.2 553 345.1 553.5 343.5 558.3 334.4 557.7 333.1 612.2 436.5 597.7 563 532.8 658.5 535.9 653.9 536.4 641.2 540.6 634.9"/><path transform="matrix(1,0,0,-1,0,859.3)" fill="url(#g5)" d="M550 669.9C550 666.5 548.8 659.2 550.8 656.2 564.9 635.4 582.2 617.1 596.5 596.5 604.2 585.5 611 573.7 615.4 561 620.2 547.2 619.4 537.9 612.1 524.9 601.9 506.5 583.8 493.7 563 490.7 553.6 517.1 531.5 549.1 508.3 529.5 505.6 527.2 503.5 524.7 502.1 522.2L502.1 522.2C501 515.5 500.2 507.8 500.6 500.6 500.7 497.7 501.1 494.9 501.7 492.2 505.1 477.7 521.4 468.6 534.7 465 540.4 463.4 546.1 462.6 551.8 462.6 557.1 462.5 562.4 463.1 567.5 464.2 589.8 469.2 609.1 485.1 617.1 507.9 625.7 532.2 623.4 565.9 614.7 589.8 601.4 625.9 571.8 652.3 550.6 683.6 551.7 682 550 672.2 550 669.9M546.7 490.3C537.4 491.1 527.3 493.7 519 498.4 515.2 500.4 511.9 503 509.1 505.9 511.9 510.3 516.5 514.1 520.5 516.2 534.9 523.7 544.6 514.8 553 503.5 556.4 499 558.5 494.6 559.5 490.3 557.6 490.1 555.6 490 553.5 490 551.3 490 549 490.1 546.7 490.3"/><path transform="matrix(1,0,0,-1,0,859.3)" fill="url(#g6)" d="M502 525.5C502 525.5 502 525.6 502 525.6 502 525.6 502 525.5 502 525.5M502 525.3 502 525.3C502 525.4 502 525.4 502 525.5 502 525.4 502 525.3 502 525.3"/><path transform="matrix(1,0,0,-1,385.6,439)" fill="#bb9a49" d="M0 0C5.6-1.6 11.2-3.2 16.8-4.7 17.1-4.9 23.8 20.3 22.5 20.7 16.9 22.3 11.3 23.9 5.7 25.5 5.4 25.6-1.3 .369 0 0"/><path transform="matrix(1,0,0,-1,396.6,469)" fill="#bb9a49" d="M0 0C5.6-1.6 11.2-3.2 16.8-4.7 17.1-4.9 23.8 20.3 22.5 20.7 16.9 22.3 11.3 23.9 5.7 25.5 5.4 25.6-1.3 .369 0 0"/><path transform="matrix(1,0,0,-1,293.2,204.1)" fill="#b58811" d="M0 0C-2.8-1.7-6-1.5-7.7 .179-10.1 2.7-8.5 7.8-5.7 9.3-1.9 11.5 3.6 6.4 4.3 5.7 9.2 1.2 9.5-5.3 9.5-7.3 10.8-2.2 12.5 1.9 13.8 4.7 17.4 12.4 19.4 13.1 20.2 13.2 22.6 13.7 25.4 12.3 26.7 10 28 7.5 27.4 4 26.1 3.6 25.1 3.2 24.3 5 21.8 5.4 21.8 5.4 20.1 5.6 18.3 4.8 14.6 3.2 15.1-3.8 13.4-10.7 12.6-14.3 10.8-19.3 6.8-24.9 7.1-21.9 7.2-17 5.5-11.3 4.1-6.1 1.7-2.3 0 0"/><path transform="matrix(1,0,0,-1,507.5,274.2)" fill="#b58811" d="M0 0C-2.2-1.4-4.8-1.2-6.1 .141-8 2.1-6.7 6.1-4.5 7.3-1.5 9 2.8 5 3.4 4.5 7.2 .929 7.4-4.2 7.5-5.8 8.5-1.7 9.8 1.5 10.8 3.7 13.7 9.8 15.2 10.3 15.9 10.4 17.8 10.8 20 9.7 21 7.9 22.1 5.9 21.6 3.2 20.6 2.8 19.8 2.5 19.1 3.9 17.2 4.2 17.2 4.2 15.8 4.4 14.4 3.8 11.4 2.5 11.9-3 10.6-8.4 9.9-11.2 8.5-15.2 5.3-19.6 5.6-17.2 5.7-13.3 4.4-8.9 3.2-4.8 1.3-1.8 0 0"/></g><g fill="#aa8844"><use href="#font_9_3" transform="matrix(69.7,0,0,-69.7,232,696.3)"/><use href="#font_9_8" transform="matrix(69.7,0,0,-69.7,277.9,696.3)"/><use href="#font_9_2" transform="matrix(69.7,0,0,-69.7,305.5,696.3)"/><use href="#font_9_7" transform="matrix(69.7,0,0,-69.7,340.8,696.3)"/><use href="#font_9_3" transform="matrix(69.7,0,0,-69.7,400.8,696.3)"/><use href="#font_9_6" transform="matrix(69.7,0,0,-69.7,446.8,696.3)"/><use href="#font_9_5" transform="matrix(69.7,0,0,-69.7,494.2,696.3)"/><use href="#font_9_5" transform="matrix(69.7,0,0,-69.7,537.4,696.3)"/><use href="#font_9_4" transform="matrix(69.7,0,0,-69.7,580.5,696.3)"/><use href="#font_10_3" transform="matrix(27.2,0,0,-27.2,230,741.5)"/><use href="#font_10_17" transform="matrix(27.2,0,0,-27.2,250.8,741.5)"/><use href="#font_10_9" transform="matrix(27.2,0,0,-27.2,271.9,741.5)"/><use href="#font_10_10" transform="matrix(27.2,0,0,-27.2,281.2,741.5)"/><use href="#font_10_5" transform="matrix(27.2,0,0,-27.2,299.6,741.5)"/><use href="#font_10_6" transform="matrix(27.2,0,0,-27.2,321.3,741.5)"/><use href="#font_10_15" transform="matrix(27.2,0,0,-27.2,341.4,741.5)"/><use href="#font_10_16" transform="matrix(27.2,0,0,-27.2,362.4,741.5)"/><use href="#font_11_1" transform="matrix(27.2,0,0,-27.2,390.4,741.5)"/><use href="#font_10_5" transform="matrix(27.2,0,0,-27.2,418.6,741.5)"/><use href="#font_10_6" transform="matrix(27.2,0,0,-27.2,440.3,741.5)"/><use href="#font_10_18" transform="matrix(27.2,0,0,-27.2,460.4,741.5)"/><use href="#font_10_6" transform="matrix(27.2,0,0,-27.2,480.6,741.5)"/><use href="#font_10_10" transform="matrix(27.2,0,0,-27.2,500.7,741.5)"/><use href="#font_10_13" transform="matrix(27.2,0,0,-27.2,517.8,741.5)"/><use href="#font_10_14" transform="matrix(27.2,0,0,-27.2,541.6,741.5)"/><use href="#font_10_6" transform="matrix(27.2,0,0,-27.2,561.4,741.5)"/><use href="#font_10_15" transform="matrix(27.2,0,0,-27.2,581.5,741.5)"/><use href="#font_10_16" transform="matrix(27.2,0,0,-27.2,602.4,741.5)"/></g></svg>